<?xml version="1.0" encoding="utf-8"?>
<!-- Generator: Adobe Illustrator 18.0.0, SVG Export Plug-In . SVG Version: 6.00 Build 0)  -->
<!DOCTYPE svg PUBLIC "-//W3C//DTD SVG 1.1//EN" "http://www.w3.org/Graphics/SVG/1.1/DTD/svg11.dtd">
<svg version="1.1" id="图层_1" xmlns="http://www.w3.org/2000/svg" xmlns:xlink="http://www.w3.org/1999/xlink" x="0px" y="0px"
	 viewBox="0 0 46 46" enable-background="new 0 0 46 46" xml:space="preserve">
<g>
	<path fill-rule="evenodd" clip-rule="evenodd" fill="#0C7BF8" d="M9,0h28c5,0,9,4,9,9v28c0,5-4,9-9,9H9c-5,0-9-4-9-9V9C0,4,4,0,9,0
		z"/>
	<path fill-rule="evenodd" clip-rule="evenodd" fill="#FFFFFF" d="M29.8,16.3c0,0-3.3,1.1-6.6,1.1c-3.3,0-6.5-1.1-6.5-1.1
		s1.1,3.1,1.1,6.3c0,3.4-1.1,6.8-1.1,6.8s3.4-1.1,6.8-1.1c3.2,0,6.3,1.1,6.3,1.1s-1.1-3.2-1.1-6.5C28.6,19.6,29.8,16.3,29.8,16.3z
		 M26.5,26.1c0,0-1.6-0.5-3.2-0.5c-1.7,0-3.4,0.5-3.4,0.5s0.6-1.7,0.6-3.4c0-1.6-0.6-3.1-0.6-3.1s1.6,0.6,3.3,0.6
		c1.6,0,3.3-0.6,3.3-0.6s-0.6,1.7-0.6,3.3C25.9,24.5,26.5,26.1,26.5,26.1z"/>
	<path fill-rule="evenodd" clip-rule="evenodd" fill="#FFFFFF" d="M27,35.9c-7.6,2-15.3-2.5-17.4-10s2.5-15.3,10-17.4
		c4.7-1.2,9.4,0,12.8,2.9c-3.9-3.8-9.6-5.6-15.3-4C8.7,9.6,3.7,18.3,6,26.7c2.3,8.5,11,13.5,19.4,11.2c4.9-1.3,8.7-4.8,10.5-9.2
		C34.1,32.1,31,34.8,27,35.9z"/>
	<path fill-rule="evenodd" clip-rule="evenodd" fill="#FFFFFF" d="M32,7c-7-4.1-15.7-3-21.5,2.1C16,4.8,23.7,4,30.1,7.6
		c8.3,4.8,11.1,15.4,6.3,23.6c-4.8,8.3-15.3,11.1-23.6,6.3c-4.2-2.4-7-6.4-8.1-10.8c1,5,4.1,9.6,8.9,12.3c8.8,5.1,20.2,2.1,25.3-6.8
		C43.9,23.5,40.9,12.2,32,7z"/>
</g>
<rect id="_x3C_切片_x3E_" x="53" y="-69.8" fill-rule="evenodd" clip-rule="evenodd" fill="none" width="48" height="48"/>
</svg>
